<?xml version="1.0" encoding="UTF-8"?>
<svg width="87px" height="61px" viewBox="0 0 87 61" version="1.1" xmlns="http://www.w3.org/2000/svg" xmlns:xlink="http://www.w3.org/1999/xlink">
    <title>Logo</title>
    <g id="Logo" stroke="none" stroke-width="1" fill="none" fill-rule="evenodd">
        <g id="Artboard" transform="translate(-6.000000, -3.000000)">
            <g id="Group" transform="translate(6.130000, 2.387302)">
                <g id="Group-2" transform="translate(0.000000, 8.612698)" stroke="#E99D9D" stroke-width="4">
                    <circle id="Oval" cx="22.5" cy="22.5" r="20.5"></circle>
                    <circle id="Oval-Copy" cx="64.24" cy="22.5" r="20.5"></circle>
                </g>
                <g transform="translate(43.870000, 31.112698) rotate(45.000000) translate(-43.870000, -31.112698) translate(21.870000, 9.112698)">
                    <rect id="Rectangle" fill="#838383" transform="translate(22.675884, 21.847457) rotate(90.000000) translate(-22.675884, -21.847457) " x="3.67588386" y="2.84745674" width="38" height="38"></rect>
                    <path d="M18.0434783,22.9565217 C19.7003325,22.9565217 21.0434783,24.2996675 21.0434783,25.9565217 L21.0434783,41 C21.0434783,42.6568542 19.7003325,44 18.0434783,44 L3,44 C1.34314575,44 -6.85272294e-16,42.6568542 0,41 L0,25.9565217 C-6.46995335e-16,24.2996675 1.34314575,22.9565217 3,22.9565217 L18.0434783,22.9565217 Z M41,22.9565217 C42.6568542,22.9565217 44,24.2996675 44,25.9565217 L44,41 C44,42.6568542 42.6568542,44 41,44 L25.9565217,44 C24.2996675,44 22.9565217,42.6568542 22.9565217,41 L22.9565217,25.9565217 C22.9565217,24.2996675 24.2996675,22.9565217 25.9565217,22.9565217 L41,22.9565217 Z M18.0434783,-2.84217094e-14 C19.7003325,-2.97535616e-14 21.0434783,1.34314575 21.0434783,3 L21.0434783,18.0434783 C21.0434783,19.7003325 19.7003325,21.0434783 18.0434783,21.0434783 L3,21.0434783 C1.34314575,21.0434783 -2.41183085e-16,19.7003325 0,18.0434783 L0,3 C2.41183085e-16,1.34314575 1.34314575,-2.85614395e-14 3,-2.84217094e-14 L18.0434783,-2.84217094e-14 Z M41,-2.84217094e-14 C42.6568542,-2.91701578e-14 44,1.34314575 44,3 L44,18.0434783 C44,19.7003325 42.6568542,21.0434783 41,21.0434783 L25.9565217,21.0434783 C24.2996675,21.0434783 22.9565217,19.7003325 22.9565217,18.0434783 L22.9565217,3 C22.9565217,1.34314575 24.2996675,-2.90055287e-14 25.9565217,-2.84217094e-14 L41,-2.84217094e-14 Z" id="Combined-Shape" fill="#D8D8D8"></path>
                </g>
            </g>
        </g>
    </g>
</svg>